<?xml version="1.0" encoding="UTF-8"?>
<svg id="Layer_2" data-name="Layer 2" xmlns="http://www.w3.org/2000/svg" xmlns:xlink="http://www.w3.org/1999/xlink" viewBox="0 0 539.53 386.98">
  <defs>
    <style>
      .cls-1 {
        fill: url(#linear-gradient);
      }
    </style>
    <linearGradient id="linear-gradient" x1="191.7" y1="-23.76" x2="318.84" y2="384.9" gradientUnits="userSpaceOnUse">
      <stop offset="0" stop-color="#62812d"/>
      <stop offset=".59" stop-color="#395422"/>
    </linearGradient>
  </defs>
  <g id="Layer_1-2" data-name="Layer 1">
    <path class="cls-1" d="M75.37,310.63c-1.35,7.19-2.26,16.37-1.35,26.91,2.04,23.47,12.05,40.64,18.16,49.44-14.81-8.6-51.25-32.41-74-79.38C-10.26,248.85,2.17,194.05,6.09,179.12c20.2,7.75,48.6,17.21,83.41,24.22,68.57,13.81,122.19,10.11,162.62,7.03,64.62-4.92,112.17-8.54,166.66-36.97,29.62-15.45,51.34-33.04,65.25-45.74-5.38,1.83-13.28,4.45-22.87,7.4-112.64,34.58-205,35.62-225.35,35.65-87.31,.16-160.97-15.64-215.26-32.29,3.96-7.66,10.18-18.68,19.17-30.94C94.03,33.41,178.02,11.38,208.57,5.23c15.43-3.11,93.64-17.54,180.28,20.85,30.53,13.53,91.59,40.59,126.47,107.63,8.97,17.25,32.03,63.22,21.53,123.1-11.35,64.69-54.28,102.27-66.6,112.34,2.39-5.14,5.64-12.83,8.42-22.49,3.65-12.67,17.59-61.08-7.48-97.44-4.16-6.03-8.61-10.6-12.38-13.94-2.13,5.69-5.5,13.53-10.76,22.2-17.82,29.37-42.42,43.77-51.8,49.11-27.01,15.38-52.5,18.73-66.6,19.51,5.42-5.84,14.42-17.09,19.64-33.8,6.33-20.27,3.65-37.56,1.88-45.57-9.67,7.36-23.62,17.11-41.44,26.74-49.49,26.76-93.54,33.53-118.66,37.17-27.59,3.99-67.69,6.86-115.7,0Z"/>
  </g>
</svg>